Incorreggibili Ninfomani - Incorrigible nymphos

Cover: 
http://imagebb.org/view.php?filename=4801259031236_cover.jpg

Preview: 
http://imagebb.org/view.php?filename=826Incorreggibili_Ninfoma.jpg

Info:
Complete name                    : E:\Torrents\Active\# 30\Incorreggibili Ninfomani.avi
Format                           : DivX
Format/Info                      : Hack of AVI
File size                        : 700 MiB
Duration                         : 1h 27mn
Overall bit rate                 : 1 123 Kbps

Video
ID                               : 0
Format                           : MPEG-4 Visual
Format settings, BVOP            : 1
Format settings, QPel            : No
Format settings, GMC             : No warppoints
Format settings, Matrix          : Default (H.263)
Muxing mode                      : Packed bitstream
Codec ID                         : DX50
Codec ID/Hint                    : DivX 5
Duration                         : 1h 27mn
Bit rate                         : 985 Kbps
Width                            : 640 pixels
Height                           : 480 pixels
Display aspect ratio             : 4:3
Frame rate                       : 25.000 fps
Color space                      : YUV
Chroma subsampling               : 4:2:0
Bit depth                        : 8 bits
Scan type                        : Progressive
Compression mode                 : Lossy
Bits/(Pixel*Frame)               : 0.128
Stream size                      : 614 MiB (88%)
Title                            : Video 
Writing library                  : DivX 1670

Audio
ID                               : 1
Format                           : MPEG Audio
Format version                   : Version 1
Format profile                   : Layer 3
Mode                             : Dual mono
Codec ID                         : 55
Codec ID/Hint                    : MP3
Duration                         : 1h 27mn
Bit rate mode                    : Constant
Bit rate                         : 128 Kbps
Channel(s)                       : 2 channels
Sampling rate                    : 44.1 KHz
Compression mode                 : Lossy
Stream size                      : 79.8 MiB (11%)
Alignment                        : Split accross interleaves
Interleave, duration             : 40 ms (1.00 video frame)
Interleave, preload duration     : 500 ms
Title                            : Audio
Writing library                  : LAME3.92
